<mxfile host="app.diagrams.net" modified="2024-04-06T01:18:48.666Z" agent="Mozilla/5.0 (Windows NT 10.0; Win64; x64) AppleWebKit/537.36 (KHTML, like Gecko) Chrome/123.0.0.0 Safari/537.36" version="24.2.1" etag="kQFSb_RXfduNa-sM8cQD" type="github">
  <diagram name="페이지-1" id="9eaEAvctxoFh2Qdqf6u7">
    <mxGraphModel>
      <root>
        <mxCell id="0" />
        <mxCell id="1" parent="0" />
      </root>
    </mxGraphModel>
  </diagram>
</mxfile>
